<mxfile host="app.diagrams.net" modified="2021-05-31T16:15:23.335Z" agent="5.0 (X11; Linux x86_64) AppleWebKit/537.36 (KHTML, like Gecko) Chrome/91.0.4472.77 Safari/537.36" etag="vFsSutEtaVlUVUiD0UuV" version="14.7.2" type="github">
  <diagram id="bhFd1MsYlGw5EBodZL_S" name="Page-1">
    <mxGraphModel dx="1350" dy="4106" grid="1" gridSize="10" guides="1" tooltips="1" connect="1" arrows="1" fold="1" page="1" pageScale="1" pageWidth="2339" pageHeight="3300" math="0" shadow="0">
      <root>
        <mxCell id="0" />
        <mxCell id="1" parent="0" />
        <mxCell id="Qs6Rd6eEG6VDtpSaX0WT-7" value="" style="ellipse;shape=cloud;whiteSpace=wrap;html=1;" vertex="1" parent="1">
          <mxGeometry x="20" y="-20" width="460" height="450" as="geometry" />
        </mxCell>
        <mxCell id="Qs6Rd6eEG6VDtpSaX0WT-1" value="DigitalCampaigns API" style="whiteSpace=wrap;html=1;aspect=fixed;" vertex="1" parent="1">
          <mxGeometry x="250" y="120" width="80" height="80" as="geometry" />
        </mxCell>
        <mxCell id="Qs6Rd6eEG6VDtpSaX0WT-15" style="edgeStyle=orthogonalEdgeStyle;rounded=0;orthogonalLoop=1;jettySize=auto;html=1;" edge="1" parent="1" source="Qs6Rd6eEG6VDtpSaX0WT-2" target="Qs6Rd6eEG6VDtpSaX0WT-1">
          <mxGeometry relative="1" as="geometry" />
        </mxCell>
        <mxCell id="Qs6Rd6eEG6VDtpSaX0WT-19" value="" style="edgeStyle=orthogonalEdgeStyle;rounded=0;orthogonalLoop=1;jettySize=auto;html=1;" edge="1" parent="1" source="Qs6Rd6eEG6VDtpSaX0WT-2" target="Qs6Rd6eEG6VDtpSaX0WT-18">
          <mxGeometry relative="1" as="geometry" />
        </mxCell>
        <mxCell id="Qs6Rd6eEG6VDtpSaX0WT-2" value="Manager&lt;br&gt;" style="whiteSpace=wrap;html=1;aspect=fixed;" vertex="1" parent="1">
          <mxGeometry x="818" y="20" width="80" height="80" as="geometry" />
        </mxCell>
        <mxCell id="Qs6Rd6eEG6VDtpSaX0WT-24" style="edgeStyle=orthogonalEdgeStyle;rounded=0;orthogonalLoop=1;jettySize=auto;html=1;" edge="1" parent="1" source="Qs6Rd6eEG6VDtpSaX0WT-3" target="Qs6Rd6eEG6VDtpSaX0WT-18">
          <mxGeometry relative="1" as="geometry" />
        </mxCell>
        <mxCell id="Qs6Rd6eEG6VDtpSaX0WT-36" style="edgeStyle=orthogonalEdgeStyle;rounded=0;orthogonalLoop=1;jettySize=auto;html=1;" edge="1" parent="1" source="Qs6Rd6eEG6VDtpSaX0WT-3" target="Qs6Rd6eEG6VDtpSaX0WT-1">
          <mxGeometry relative="1" as="geometry" />
        </mxCell>
        <mxCell id="Qs6Rd6eEG6VDtpSaX0WT-3" value="infobip-report-consumer" style="whiteSpace=wrap;html=1;aspect=fixed;" vertex="1" parent="1">
          <mxGeometry x="660" y="80" width="80" height="80" as="geometry" />
        </mxCell>
        <mxCell id="Qs6Rd6eEG6VDtpSaX0WT-16" style="edgeStyle=orthogonalEdgeStyle;rounded=0;orthogonalLoop=1;jettySize=auto;html=1;entryX=1.025;entryY=0.588;entryDx=0;entryDy=0;entryPerimeter=0;" edge="1" parent="1" source="Qs6Rd6eEG6VDtpSaX0WT-4" target="Qs6Rd6eEG6VDtpSaX0WT-1">
          <mxGeometry relative="1" as="geometry" />
        </mxCell>
        <mxCell id="Qs6Rd6eEG6VDtpSaX0WT-25" style="edgeStyle=orthogonalEdgeStyle;rounded=0;orthogonalLoop=1;jettySize=auto;html=1;" edge="1" parent="1" source="Qs6Rd6eEG6VDtpSaX0WT-4" target="Qs6Rd6eEG6VDtpSaX0WT-18">
          <mxGeometry relative="1" as="geometry" />
        </mxCell>
        <mxCell id="Qs6Rd6eEG6VDtpSaX0WT-4" value="socketlabs-notification-consumer" style="whiteSpace=wrap;html=1;aspect=fixed;" vertex="1" parent="1">
          <mxGeometry x="660" y="180" width="80" height="80" as="geometry" />
        </mxCell>
        <mxCell id="Qs6Rd6eEG6VDtpSaX0WT-5" value="BD biilingportal" style="shape=cylinder3;whiteSpace=wrap;html=1;boundedLbl=1;backgroundOutline=1;size=15;" vertex="1" parent="1">
          <mxGeometry x="130" y="140" width="60" height="80" as="geometry" />
        </mxCell>
        <mxCell id="Qs6Rd6eEG6VDtpSaX0WT-8" value="infobip-sms-sender" style="whiteSpace=wrap;html=1;aspect=fixed;fillColor=#ffe6cc;strokeColor=#d79b00;" vertex="1" parent="1">
          <mxGeometry x="210" y="280" width="80" height="80" as="geometry" />
        </mxCell>
        <mxCell id="Qs6Rd6eEG6VDtpSaX0WT-17" style="edgeStyle=orthogonalEdgeStyle;rounded=0;orthogonalLoop=1;jettySize=auto;html=1;fillColor=#ffe6cc;strokeColor=#d79b00;" edge="1" parent="1" source="Qs6Rd6eEG6VDtpSaX0WT-9" target="Qs6Rd6eEG6VDtpSaX0WT-1">
          <mxGeometry relative="1" as="geometry" />
        </mxCell>
        <mxCell id="Qs6Rd6eEG6VDtpSaX0WT-9" value="socketlabs-email-sender" style="whiteSpace=wrap;html=1;aspect=fixed;fillColor=#ffe6cc;strokeColor=#d79b00;" vertex="1" parent="1">
          <mxGeometry x="320" y="255" width="80" height="80" as="geometry" />
        </mxCell>
        <mxCell id="Qs6Rd6eEG6VDtpSaX0WT-12" style="edgeStyle=orthogonalEdgeStyle;rounded=0;orthogonalLoop=1;jettySize=auto;html=1;" edge="1" parent="1" source="Qs6Rd6eEG6VDtpSaX0WT-10" target="Qs6Rd6eEG6VDtpSaX0WT-9">
          <mxGeometry relative="1" as="geometry" />
        </mxCell>
        <mxCell id="Qs6Rd6eEG6VDtpSaX0WT-21" style="edgeStyle=orthogonalEdgeStyle;rounded=0;orthogonalLoop=1;jettySize=auto;html=1;entryX=0.5;entryY=1;entryDx=0;entryDy=0;entryPerimeter=0;" edge="1" parent="1" source="Qs6Rd6eEG6VDtpSaX0WT-10" target="Qs6Rd6eEG6VDtpSaX0WT-18">
          <mxGeometry relative="1" as="geometry" />
        </mxCell>
        <mxCell id="Qs6Rd6eEG6VDtpSaX0WT-10" value="email-sender" style="whiteSpace=wrap;html=1;aspect=fixed;" vertex="1" parent="1">
          <mxGeometry x="770" y="260" width="70" height="70" as="geometry" />
        </mxCell>
        <mxCell id="Qs6Rd6eEG6VDtpSaX0WT-13" style="edgeStyle=orthogonalEdgeStyle;rounded=0;orthogonalLoop=1;jettySize=auto;html=1;" edge="1" parent="1" source="Qs6Rd6eEG6VDtpSaX0WT-11" target="Qs6Rd6eEG6VDtpSaX0WT-9">
          <mxGeometry relative="1" as="geometry" />
        </mxCell>
        <mxCell id="Qs6Rd6eEG6VDtpSaX0WT-22" style="edgeStyle=orthogonalEdgeStyle;rounded=0;orthogonalLoop=1;jettySize=auto;html=1;" edge="1" parent="1" source="Qs6Rd6eEG6VDtpSaX0WT-11">
          <mxGeometry relative="1" as="geometry">
            <mxPoint x="860" y="200" as="targetPoint" />
          </mxGeometry>
        </mxCell>
        <mxCell id="Qs6Rd6eEG6VDtpSaX0WT-11" value="email-sender" style="whiteSpace=wrap;html=1;aspect=fixed;" vertex="1" parent="1">
          <mxGeometry x="770" y="360" width="70" height="70" as="geometry" />
        </mxCell>
        <mxCell id="Qs6Rd6eEG6VDtpSaX0WT-18" value="" style="points=[[0,0,0],[0.25,0,0],[0.5,0,0],[0.75,0,0],[1,0,0],[0,1,0],[0.25,1,0],[0.5,1,0],[0.75,1,0],[1,1,0],[0,0.25,0],[0,0.5,0],[0,0.75,0],[1,0.25,0],[1,0.5,0],[1,0.75,0]];outlineConnect=0;fontColor=#232F3E;gradientColor=#945DF2;gradientDirection=north;fillColor=#5A30B5;strokeColor=#ffffff;dashed=0;verticalLabelPosition=bottom;verticalAlign=top;align=center;html=1;fontSize=12;fontStyle=0;aspect=fixed;shape=mxgraph.aws4.resourceIcon;resIcon=mxgraph.aws4.managed_streaming_for_kafka;" vertex="1" parent="1">
          <mxGeometry x="820" y="130" width="78" height="78" as="geometry" />
        </mxCell>
        <mxCell id="Qs6Rd6eEG6VDtpSaX0WT-27" style="edgeStyle=orthogonalEdgeStyle;rounded=0;orthogonalLoop=1;jettySize=auto;html=1;entryX=0.5;entryY=1;entryDx=0;entryDy=0;entryPerimeter=0;" edge="1" parent="1" source="Qs6Rd6eEG6VDtpSaX0WT-23" target="Qs6Rd6eEG6VDtpSaX0WT-18">
          <mxGeometry relative="1" as="geometry">
            <Array as="points">
              <mxPoint x="815" y="450" />
              <mxPoint x="859" y="450" />
            </Array>
          </mxGeometry>
        </mxCell>
        <mxCell id="Qs6Rd6eEG6VDtpSaX0WT-29" style="edgeStyle=orthogonalEdgeStyle;rounded=0;orthogonalLoop=1;jettySize=auto;html=1;" edge="1" parent="1" source="Qs6Rd6eEG6VDtpSaX0WT-23" target="Qs6Rd6eEG6VDtpSaX0WT-8">
          <mxGeometry relative="1" as="geometry" />
        </mxCell>
        <mxCell id="Qs6Rd6eEG6VDtpSaX0WT-23" value="sms-sender" style="whiteSpace=wrap;html=1;aspect=fixed;" vertex="1" parent="1">
          <mxGeometry x="780" y="470" width="70" height="70" as="geometry" />
        </mxCell>
        <mxCell id="Qs6Rd6eEG6VDtpSaX0WT-28" style="edgeStyle=orthogonalEdgeStyle;rounded=0;orthogonalLoop=1;jettySize=auto;html=1;entryX=0.75;entryY=1;entryDx=0;entryDy=0;entryPerimeter=0;" edge="1" parent="1" source="Qs6Rd6eEG6VDtpSaX0WT-26" target="Qs6Rd6eEG6VDtpSaX0WT-18">
          <mxGeometry relative="1" as="geometry">
            <Array as="points">
              <mxPoint x="879" y="580" />
            </Array>
          </mxGeometry>
        </mxCell>
        <mxCell id="Qs6Rd6eEG6VDtpSaX0WT-30" style="edgeStyle=orthogonalEdgeStyle;rounded=0;orthogonalLoop=1;jettySize=auto;html=1;" edge="1" parent="1" source="Qs6Rd6eEG6VDtpSaX0WT-26" target="Qs6Rd6eEG6VDtpSaX0WT-8">
          <mxGeometry relative="1" as="geometry" />
        </mxCell>
        <mxCell id="Qs6Rd6eEG6VDtpSaX0WT-26" value="sms-sender" style="whiteSpace=wrap;html=1;aspect=fixed;" vertex="1" parent="1">
          <mxGeometry x="780" y="550" width="70" height="70" as="geometry" />
        </mxCell>
        <mxCell id="Qs6Rd6eEG6VDtpSaX0WT-33" style="edgeStyle=orthogonalEdgeStyle;rounded=0;orthogonalLoop=1;jettySize=auto;html=1;" edge="1" parent="1" source="Qs6Rd6eEG6VDtpSaX0WT-31" target="Qs6Rd6eEG6VDtpSaX0WT-18">
          <mxGeometry relative="1" as="geometry" />
        </mxCell>
        <mxCell id="Qs6Rd6eEG6VDtpSaX0WT-31" value="infobip-notification-api" style="whiteSpace=wrap;html=1;aspect=fixed;" vertex="1" parent="1">
          <mxGeometry x="970" y="70" width="80" height="80" as="geometry" />
        </mxCell>
        <mxCell id="Qs6Rd6eEG6VDtpSaX0WT-34" style="edgeStyle=orthogonalEdgeStyle;rounded=0;orthogonalLoop=1;jettySize=auto;html=1;" edge="1" parent="1" source="Qs6Rd6eEG6VDtpSaX0WT-32" target="Qs6Rd6eEG6VDtpSaX0WT-18">
          <mxGeometry relative="1" as="geometry" />
        </mxCell>
        <mxCell id="Qs6Rd6eEG6VDtpSaX0WT-32" value="socketlabs-notification-api" style="whiteSpace=wrap;html=1;aspect=fixed;" vertex="1" parent="1">
          <mxGeometry x="970" y="180" width="80" height="80" as="geometry" />
        </mxCell>
      </root>
    </mxGraphModel>
  </diagram>
</mxfile>
